<svg id="visual" viewBox="0 0 900 600" width="900" height="600" xmlns="http://www.w3.org/2000/svg" xmlns:xlink="http://www.w3.org/1999/xlink" version="1.1"><g stroke-width="1" stroke-linejoin="bevel"><path d="M453 302L493 343.9L496 296Z" fill="#040404" stroke="#040404"></path><path d="M453 302L449 345.9L493 343.9Z" fill="#1d1d1d" stroke="#1d1d1d"></path><path d="M496 296L497 262.1L453 302Z" fill="#101010" stroke="#101010"></path><path d="M493 343.9L540 336.9L496 296Z" fill="#040404" stroke="#040404"></path><path d="M496 296L543 299L497 262.1Z" fill="#1d1d1d" stroke="#1d1d1d"></path><path d="M540 336.9L543 299L496 296Z" fill="#131313" stroke="#131313"></path><path d="M449 345.9L489 387.7L493 343.9Z" fill="#101010" stroke="#101010"></path><path d="M493 343.9L538 388.7L540 336.9Z" fill="#1f1f1f" stroke="#1f1f1f"></path><path d="M405 259.1L408 305L453 302Z" fill="#161616" stroke="#161616"></path><path d="M453 302L408 305L449 345.9Z" fill="#090909" stroke="#090909"></path><path d="M449 345.9L446 389.7L489 387.7Z" fill="#1f1f1f" stroke="#1f1f1f"></path><path d="M497 262.1L447 251.1L453 302Z" fill="#1a1a1a" stroke="#1a1a1a"></path><path d="M409 383.7L446 389.7L449 345.9Z" fill="#1a1a1a" stroke="#1a1a1a"></path><path d="M408 305L400 347.9L449 345.9Z" fill="#101010" stroke="#101010"></path><path d="M543 299L538 253.1L497 262.1Z" fill="#0d0d0d" stroke="#0d0d0d"></path><path d="M496 208.3L445 219.3L447 251.1Z" fill="#000000" stroke="#000000"></path><path d="M499 425.6L538 388.7L489 387.7Z" fill="#0d0d0d" stroke="#0d0d0d"></path><path d="M489 387.7L538 388.7L493 343.9Z" fill="#0d0d0d" stroke="#0d0d0d"></path><path d="M540 336.9L580 305L543 299Z" fill="#131313" stroke="#131313"></path><path d="M447 251.1L405 259.1L453 302Z" fill="#101010" stroke="#101010"></path><path d="M408 305L362 338.9L400 347.9Z" fill="#1d1d1d" stroke="#1d1d1d"></path><path d="M400 347.9L409 383.7L449 345.9Z" fill="#1a1a1a" stroke="#1a1a1a"></path><path d="M584 344.9L580 305L540 336.9Z" fill="#000000" stroke="#000000"></path><path d="M543 299L583 255.1L538 253.1Z" fill="#040404" stroke="#040404"></path><path d="M496 208.3L447 251.1L497 262.1Z" fill="#131313" stroke="#131313"></path><path d="M447 251.1L406 219.3L405 259.1Z" fill="#1d1d1d" stroke="#1d1d1d"></path><path d="M401 428.6L455 423.6L446 389.7Z" fill="#040404" stroke="#040404"></path><path d="M446 389.7L455 423.6L489 387.7Z" fill="#101010" stroke="#101010"></path><path d="M455 423.6L499 425.6L489 387.7Z" fill="#131313" stroke="#131313"></path><path d="M538 388.7L584 344.9L540 336.9Z" fill="#040404" stroke="#040404"></path><path d="M538 253.1L496 208.3L497 262.1Z" fill="#131313" stroke="#131313"></path><path d="M361 296L362 338.9L408 305Z" fill="#000000" stroke="#000000"></path><path d="M400 347.9L360 387.7L409 383.7Z" fill="#0d0d0d" stroke="#0d0d0d"></path><path d="M359 259.1L361 296L405 259.1Z" fill="#1a1a1a" stroke="#1a1a1a"></path><path d="M405 259.1L361 296L408 305Z" fill="#1d1d1d" stroke="#1d1d1d"></path><path d="M499 425.6L541 422.6L538 388.7Z" fill="#161616" stroke="#161616"></path><path d="M538 388.7L584 385.7L584 344.9Z" fill="#161616" stroke="#161616"></path><path d="M402 174.4L406 219.3L445 219.3Z" fill="#161616" stroke="#161616"></path><path d="M445 219.3L406 219.3L447 251.1Z" fill="#040404" stroke="#040404"></path><path d="M624 302L583 255.1L580 305Z" fill="#161616" stroke="#161616"></path><path d="M580 305L583 255.1L543 299Z" fill="#1a1a1a" stroke="#1a1a1a"></path><path d="M538 253.1L537 208.3L496 208.3Z" fill="#1a1a1a" stroke="#1a1a1a"></path><path d="M583 255.1L537 208.3L538 253.1Z" fill="#181818" stroke="#181818"></path><path d="M541 422.6L584 385.7L538 388.7Z" fill="#181818" stroke="#181818"></path><path d="M406 219.3L359 259.1L405 259.1Z" fill="#161616" stroke="#161616"></path><path d="M319 344.9L360 387.7L362 338.9Z" fill="#0d0d0d" stroke="#0d0d0d"></path><path d="M360 387.7L401 428.6L409 383.7Z" fill="#1a1a1a" stroke="#1a1a1a"></path><path d="M409 383.7L401 428.6L446 389.7Z" fill="#090909" stroke="#090909"></path><path d="M455 423.6L498 475.4L499 425.6Z" fill="#090909" stroke="#090909"></path><path d="M319 344.9L362 338.9L315 296Z" fill="#101010" stroke="#101010"></path><path d="M362 338.9L360 387.7L400 347.9Z" fill="#090909" stroke="#090909"></path><path d="M537 208.3L494 173.4L496 208.3Z" fill="#1a1a1a" stroke="#1a1a1a"></path><path d="M496 208.3L450 172.4L445 219.3Z" fill="#131313" stroke="#131313"></path><path d="M635 337.9L624 302L584 344.9Z" fill="#090909" stroke="#090909"></path><path d="M584 344.9L624 302L580 305Z" fill="#161616" stroke="#161616"></path><path d="M494 173.4L450 172.4L496 208.3Z" fill="#1d1d1d" stroke="#1d1d1d"></path><path d="M406 219.3L360 211.3L359 259.1Z" fill="#1a1a1a" stroke="#1a1a1a"></path><path d="M401 428.6L447 470.4L455 423.6Z" fill="#1a1a1a" stroke="#1a1a1a"></path><path d="M499 425.6L534 473.4L541 422.6Z" fill="#040404" stroke="#040404"></path><path d="M583 255.1L589 209.3L537 208.3Z" fill="#090909" stroke="#090909"></path><path d="M537 208.3L545 170.4L494 173.4Z" fill="#040404" stroke="#040404"></path><path d="M629 210.3L589 209.3L583 255.1Z" fill="#101010" stroke="#101010"></path><path d="M447 470.4L498 475.4L455 423.6Z" fill="#101010" stroke="#101010"></path><path d="M541 422.6L590 430.6L584 385.7Z" fill="#1a1a1a" stroke="#1a1a1a"></path><path d="M584 476.4L590 430.6L541 422.6Z" fill="#1f1f1f" stroke="#1f1f1f"></path><path d="M632 387.7L635 337.9L584 344.9Z" fill="#131313" stroke="#131313"></path><path d="M632 387.7L584 344.9L584 385.7Z" fill="#1a1a1a" stroke="#1a1a1a"></path><path d="M402 174.4L360 211.3L406 219.3Z" fill="#1a1a1a" stroke="#1a1a1a"></path><path d="M315 296L361 296L319 260.1Z" fill="#1f1f1f" stroke="#1f1f1f"></path><path d="M315 296L362 338.9L361 296Z" fill="#000000" stroke="#000000"></path><path d="M450 172.4L402 174.4L445 219.3Z" fill="#161616" stroke="#161616"></path><path d="M581 170.4L545 170.4L537 208.3Z" fill="#101010" stroke="#101010"></path><path d="M494 173.4L451 129.6L450 172.4Z" fill="#090909" stroke="#090909"></path><path d="M319 260.1L361 296L359 259.1Z" fill="#000000" stroke="#000000"></path><path d="M360 387.7L354 427.6L401 428.6Z" fill="#1a1a1a" stroke="#1a1a1a"></path><path d="M401 428.6L409 474.4L447 470.4Z" fill="#040404" stroke="#040404"></path><path d="M318 383.7L354 427.6L360 387.7Z" fill="#101010" stroke="#101010"></path><path d="M498 475.4L534 473.4L499 425.6Z" fill="#181818" stroke="#181818"></path><path d="M360 211.3L319 260.1L359 259.1Z" fill="#1f1f1f" stroke="#1f1f1f"></path><path d="M590 430.6L632 387.7L584 385.7Z" fill="#000000" stroke="#000000"></path><path d="M354 475.4L409 474.4L401 428.6Z" fill="#101010" stroke="#101010"></path><path d="M447 470.4L453 518.3L498 475.4Z" fill="#000000" stroke="#000000"></path><path d="M673 301L635 255.1L624 302Z" fill="#1d1d1d" stroke="#1d1d1d"></path><path d="M624 302L635 255.1L583 255.1Z" fill="#0d0d0d" stroke="#0d0d0d"></path><path d="M275 385.7L318 383.7L319 344.9Z" fill="#131313" stroke="#131313"></path><path d="M319 344.9L318 383.7L360 387.7Z" fill="#181818" stroke="#181818"></path><path d="M635 168.4L581 170.4L589 209.3Z" fill="#181818" stroke="#181818"></path><path d="M589 209.3L581 170.4L537 208.3Z" fill="#1a1a1a" stroke="#1a1a1a"></path><path d="M635 255.1L629 210.3L583 255.1Z" fill="#181818" stroke="#181818"></path><path d="M402 174.4L357 173.4L360 211.3Z" fill="#1f1f1f" stroke="#1f1f1f"></path><path d="M360 211.3L309 213.3L319 260.1Z" fill="#090909" stroke="#090909"></path><path d="M401 129.6L357 173.4L402 174.4Z" fill="#000000" stroke="#000000"></path><path d="M401 129.6L402 174.4L450 172.4Z" fill="#1f1f1f" stroke="#1f1f1f"></path><path d="M534 473.4L584 476.4L541 422.6Z" fill="#1f1f1f" stroke="#1f1f1f"></path><path d="M590 430.6L633 433.6L632 387.7Z" fill="#040404" stroke="#040404"></path><path d="M537 511.3L584 476.4L534 473.4Z" fill="#1d1d1d" stroke="#1d1d1d"></path><path d="M537 511.3L534 473.4L498 475.4Z" fill="#131313" stroke="#131313"></path><path d="M538 129.6L494 173.4L545 170.4Z" fill="#090909" stroke="#090909"></path><path d="M538 129.6L498 129.6L494 173.4Z" fill="#040404" stroke="#040404"></path><path d="M498 129.6L451 129.6L494 173.4Z" fill="#000000" stroke="#000000"></path><path d="M275 385.7L316 425.6L318 383.7Z" fill="#1d1d1d" stroke="#1d1d1d"></path><path d="M318 383.7L316 425.6L354 427.6Z" fill="#161616" stroke="#161616"></path><path d="M354 427.6L354 475.4L401 428.6Z" fill="#1d1d1d" stroke="#1d1d1d"></path><path d="M632 465.4L633 433.6L590 430.6Z" fill="#040404" stroke="#040404"></path><path d="M675 341.9L673 301L635 337.9Z" fill="#000000" stroke="#000000"></path><path d="M675 341.9L635 337.9L632 387.7Z" fill="#090909" stroke="#090909"></path><path d="M635 337.9L673 301L624 302Z" fill="#101010" stroke="#101010"></path><path d="M635 255.1L679 219.3L629 210.3Z" fill="#1d1d1d" stroke="#1d1d1d"></path><path d="M312 174.4L309 213.3L360 211.3Z" fill="#1d1d1d" stroke="#1d1d1d"></path><path d="M268 257.1L275 301L315 296Z" fill="#1d1d1d" stroke="#1d1d1d"></path><path d="M315 296L275 301L319 344.9Z" fill="#101010" stroke="#101010"></path><path d="M590 132.6L538 129.6L581 170.4Z" fill="#1a1a1a" stroke="#1a1a1a"></path><path d="M581 170.4L538 129.6L545 170.4Z" fill="#161616" stroke="#161616"></path><path d="M680 390.7L675 341.9L632 387.7Z" fill="#090909" stroke="#090909"></path><path d="M319 466.4L354 475.4L354 427.6Z" fill="#040404" stroke="#040404"></path><path d="M409 474.4L453 518.3L447 470.4Z" fill="#1f1f1f" stroke="#1f1f1f"></path><path d="M401 512.3L453 518.3L409 474.4Z" fill="#0d0d0d" stroke="#0d0d0d"></path><path d="M453 518.3L494 519.3L498 475.4Z" fill="#090909" stroke="#090909"></path><path d="M494 519.3L537 511.3L498 475.4Z" fill="#101010" stroke="#101010"></path><path d="M268 257.1L315 296L319 260.1Z" fill="#0d0d0d" stroke="#0d0d0d"></path><path d="M451 129.6L401 129.6L450 172.4Z" fill="#0d0d0d" stroke="#0d0d0d"></path><path d="M357 173.4L312 174.4L360 211.3Z" fill="#1f1f1f" stroke="#1f1f1f"></path><path d="M673 301L674 252.1L635 255.1Z" fill="#1a1a1a" stroke="#1a1a1a"></path><path d="M679 219.3L674 252.1L718 256.1Z" fill="#040404" stroke="#040404"></path><path d="M354 475.4L401 512.3L409 474.4Z" fill="#1f1f1f" stroke="#1f1f1f"></path><path d="M275 301L267 342.9L319 344.9Z" fill="#1d1d1d" stroke="#1d1d1d"></path><path d="M267 342.9L275 385.7L319 344.9Z" fill="#1d1d1d" stroke="#1d1d1d"></path><path d="M316 425.6L319 466.4L354 427.6Z" fill="#181818" stroke="#181818"></path><path d="M629 509.3L632 465.4L584 476.4Z" fill="#1a1a1a" stroke="#1a1a1a"></path><path d="M584 476.4L632 465.4L590 430.6Z" fill="#161616" stroke="#161616"></path><path d="M678 428.6L680 390.7L632 387.7Z" fill="#181818" stroke="#181818"></path><path d="M678 428.6L632 387.7L633 433.6Z" fill="#000000" stroke="#000000"></path><path d="M718 256.1L674 252.1L673 301Z" fill="#1a1a1a" stroke="#1a1a1a"></path><path d="M269 426.6L319 466.4L316 425.6Z" fill="#181818" stroke="#181818"></path><path d="M354 475.4L354 519.3L401 512.3Z" fill="#000000" stroke="#000000"></path><path d="M635 168.4L589 209.3L629 210.3Z" fill="#040404" stroke="#040404"></path><path d="M635 168.4L590 132.6L581 170.4Z" fill="#090909" stroke="#090909"></path><path d="M669 168.4L635 168.4L629 210.3Z" fill="#1f1f1f" stroke="#1f1f1f"></path><path d="M309 213.3L268 257.1L319 260.1Z" fill="#101010" stroke="#101010"></path><path d="M275 301L223 305L267 342.9Z" fill="#101010" stroke="#101010"></path><path d="M310 129.6L312 174.4L357 173.4Z" fill="#090909" stroke="#090909"></path><path d="M309 213.3L269 208.3L268 257.1Z" fill="#000000" stroke="#000000"></path><path d="M722 337.9L673 301L675 341.9Z" fill="#131313" stroke="#131313"></path><path d="M674 252.1L679 219.3L635 255.1Z" fill="#040404" stroke="#040404"></path><path d="M401 129.6L361 125.6L357 173.4Z" fill="#181818" stroke="#181818"></path><path d="M407 88.7L361 125.6L401 129.6Z" fill="#000000" stroke="#000000"></path><path d="M407 88.7L401 129.6L451 129.6Z" fill="#181818" stroke="#181818"></path><path d="M497 90.7L451 129.6L498 129.6Z" fill="#0d0d0d" stroke="#0d0d0d"></path><path d="M537 511.3L587 516.3L584 476.4Z" fill="#161616" stroke="#161616"></path><path d="M582 556.1L587 516.3L537 511.3Z" fill="#090909" stroke="#090909"></path><path d="M671 470.4L678 428.6L633 433.6Z" fill="#131313" stroke="#131313"></path><path d="M671 470.4L633 433.6L632 465.4Z" fill="#0d0d0d" stroke="#0d0d0d"></path><path d="M543 79.7L497 90.7L538 129.6Z" fill="#090909" stroke="#090909"></path><path d="M538 129.6L497 90.7L498 129.6Z" fill="#101010" stroke="#101010"></path><path d="M497 90.7L447 88.7L451 129.6Z" fill="#161616" stroke="#161616"></path><path d="M228 380.7L269 426.6L275 385.7Z" fill="#040404" stroke="#040404"></path><path d="M275 385.7L269 426.6L316 425.6Z" fill="#040404" stroke="#040404"></path><path d="M319 510.3L354 475.4L319 466.4Z" fill="#0d0d0d" stroke="#0d0d0d"></path><path d="M319 510.3L354 519.3L354 475.4Z" fill="#181818" stroke="#181818"></path><path d="M401 557.1L452 555.1L453 518.3Z" fill="#090909" stroke="#090909"></path><path d="M453 518.3L452 555.1L494 519.3Z" fill="#000000" stroke="#000000"></path><path d="M266 170.4L269 208.3L312 174.4Z" fill="#101010" stroke="#101010"></path><path d="M312 174.4L269 208.3L309 213.3Z" fill="#000000" stroke="#000000"></path><path d="M401 557.1L453 518.3L401 512.3Z" fill="#1f1f1f" stroke="#1f1f1f"></path><path d="M494 519.3L537 560.1L537 511.3Z" fill="#0d0d0d" stroke="#0d0d0d"></path><path d="M447 88.7L407 88.7L451 129.6Z" fill="#090909" stroke="#090909"></path><path d="M624 556.1L629 509.3L587 516.3Z" fill="#181818" stroke="#181818"></path><path d="M587 516.3L629 509.3L584 476.4Z" fill="#090909" stroke="#090909"></path><path d="M452 555.1L490 562.1L494 519.3Z" fill="#040404" stroke="#040404"></path><path d="M679 219.3L669 168.4L629 210.3Z" fill="#090909" stroke="#090909"></path><path d="M635 168.4L634 128.6L590 132.6Z" fill="#0d0d0d" stroke="#0d0d0d"></path><path d="M723 382.7L675 341.9L680 390.7Z" fill="#181818" stroke="#181818"></path><path d="M723 382.7L722 337.9L675 341.9Z" fill="#131313" stroke="#131313"></path><path d="M679 219.3L720 208.3L669 168.4Z" fill="#1f1f1f" stroke="#1f1f1f"></path><path d="M629 509.3L671 470.4L632 465.4Z" fill="#0d0d0d" stroke="#0d0d0d"></path><path d="M714 422.6L723 382.7L680 390.7Z" fill="#131313" stroke="#131313"></path><path d="M670 130.6L634 128.6L635 168.4Z" fill="#1d1d1d" stroke="#1d1d1d"></path><path d="M588 88.7L543 79.7L538 129.6Z" fill="#040404" stroke="#040404"></path><path d="M588 88.7L538 129.6L590 132.6Z" fill="#101010" stroke="#101010"></path><path d="M497 90.7L493 46.9L447 88.7Z" fill="#000000" stroke="#000000"></path><path d="M365 42.9L358 83.7L407 88.7Z" fill="#1a1a1a" stroke="#1a1a1a"></path><path d="M272 474.4L319 510.3L319 466.4Z" fill="#1f1f1f" stroke="#1f1f1f"></path><path d="M354 519.3L401 557.1L401 512.3Z" fill="#040404" stroke="#040404"></path><path d="M490 562.1L537 560.1L494 519.3Z" fill="#161616" stroke="#161616"></path><path d="M725 295L718 256.1L673 301Z" fill="#131313" stroke="#131313"></path><path d="M722 337.9L725 295L673 301Z" fill="#040404" stroke="#040404"></path><path d="M355 554.1L401 557.1L354 519.3Z" fill="#101010" stroke="#101010"></path><path d="M445 600L490 600L490 562.1Z" fill="#1d1d1d" stroke="#1d1d1d"></path><path d="M358 83.7L310 129.6L361 125.6Z" fill="#0d0d0d" stroke="#0d0d0d"></path><path d="M361 125.6L310 129.6L357 173.4Z" fill="#181818" stroke="#181818"></path><path d="M714 422.6L680 390.7L678 428.6Z" fill="#1d1d1d" stroke="#1d1d1d"></path><path d="M722 337.9L759 298L725 295Z" fill="#181818" stroke="#181818"></path><path d="M222 258.1L223 305L268 257.1Z" fill="#1a1a1a" stroke="#1a1a1a"></path><path d="M268 257.1L223 305L275 301Z" fill="#1a1a1a" stroke="#1a1a1a"></path><path d="M267 342.9L228 380.7L275 385.7Z" fill="#040404" stroke="#040404"></path><path d="M629 89.7L588 88.7L590 132.6Z" fill="#000000" stroke="#000000"></path><path d="M219 336.9L228 380.7L267 342.9Z" fill="#1a1a1a" stroke="#1a1a1a"></path><path d="M269 426.6L272 474.4L319 466.4Z" fill="#131313" stroke="#131313"></path><path d="M223 465.4L272 474.4L269 426.6Z" fill="#161616" stroke="#161616"></path><path d="M310 129.6L266 170.4L312 174.4Z" fill="#040404" stroke="#040404"></path><path d="M223 212.3L222 258.1L268 257.1Z" fill="#0d0d0d" stroke="#0d0d0d"></path><path d="M719 470.4L714 422.6L678 428.6Z" fill="#000000" stroke="#000000"></path><path d="M223 305L219 336.9L267 342.9Z" fill="#090909" stroke="#090909"></path><path d="M537 560.1L582 556.1L537 511.3Z" fill="#181818" stroke="#181818"></path><path d="M629 509.3L679 517.3L671 470.4Z" fill="#040404" stroke="#040404"></path><path d="M223 212.3L268 257.1L269 208.3Z" fill="#040404" stroke="#040404"></path><path d="M176 301L185 343.9L219 336.9Z" fill="#1f1f1f" stroke="#1f1f1f"></path><path d="M407 88.7L358 83.7L361 125.6Z" fill="#1f1f1f" stroke="#1f1f1f"></path><path d="M310 129.6L268 129.6L266 170.4Z" fill="#101010" stroke="#101010"></path><path d="M408 45.9L407 88.7L447 88.7Z" fill="#181818" stroke="#181818"></path><path d="M310 551.1L354 519.3L319 510.3Z" fill="#090909" stroke="#090909"></path><path d="M310 551.1L355 554.1L354 519.3Z" fill="#101010" stroke="#101010"></path><path d="M718 256.1L720 208.3L679 219.3Z" fill="#000000" stroke="#000000"></path><path d="M669 168.4L670 130.6L635 168.4Z" fill="#0d0d0d" stroke="#0d0d0d"></path><path d="M760 259.1L720 208.3L718 256.1Z" fill="#1a1a1a" stroke="#1a1a1a"></path><path d="M725 166.4L670 130.6L669 168.4Z" fill="#101010" stroke="#101010"></path><path d="M634 128.6L629 89.7L590 132.6Z" fill="#0d0d0d" stroke="#0d0d0d"></path><path d="M542 42.9L493 46.9L543 79.7Z" fill="#181818" stroke="#181818"></path><path d="M543 79.7L493 46.9L497 90.7Z" fill="#181818" stroke="#181818"></path><path d="M674 89.7L629 89.7L634 128.6Z" fill="#040404" stroke="#040404"></path><path d="M580 37.9L542 42.9L543 79.7Z" fill="#1f1f1f" stroke="#1f1f1f"></path><path d="M225 174.4L223 212.3L269 208.3Z" fill="#0d0d0d" stroke="#0d0d0d"></path><path d="M176 301L219 336.9L223 305Z" fill="#131313" stroke="#131313"></path><path d="M228 380.7L221 425.6L269 426.6Z" fill="#181818" stroke="#181818"></path><path d="M265 517.3L310 551.1L319 510.3Z" fill="#161616" stroke="#161616"></path><path d="M177 389.7L221 425.6L228 380.7Z" fill="#101010" stroke="#101010"></path><path d="M493 46.9L444 41.9L447 88.7Z" fill="#101010" stroke="#101010"></path><path d="M583 600L624 556.1L582 556.1Z" fill="#161616" stroke="#161616"></path><path d="M582 556.1L624 556.1L587 516.3Z" fill="#101010" stroke="#101010"></path><path d="M671 470.4L719 470.4L678 428.6Z" fill="#1f1f1f" stroke="#1f1f1f"></path><path d="M445 600L490 562.1L452 555.1Z" fill="#1d1d1d" stroke="#1d1d1d"></path><path d="M490 562.1L490 600L537 560.1Z" fill="#131313" stroke="#131313"></path><path d="M537 560.1L544 600L582 556.1Z" fill="#181818" stroke="#181818"></path><path d="M445 600L452 555.1L401 557.1Z" fill="#090909" stroke="#090909"></path><path d="M444 41.9L408 45.9L447 88.7Z" fill="#040404" stroke="#040404"></path><path d="M309 83.7L310 129.6L358 83.7Z" fill="#131313" stroke="#131313"></path><path d="M309 83.7L268 129.6L310 129.6Z" fill="#101010" stroke="#101010"></path><path d="M266 170.4L225 174.4L269 208.3Z" fill="#040404" stroke="#040404"></path><path d="M759 345.9L759 298L722 337.9Z" fill="#181818" stroke="#181818"></path><path d="M725 295L760 259.1L718 256.1Z" fill="#0d0d0d" stroke="#0d0d0d"></path><path d="M759 345.9L722 337.9L723 382.7Z" fill="#101010" stroke="#101010"></path><path d="M624 556.1L679 517.3L629 509.3Z" fill="#161616" stroke="#161616"></path><path d="M407 600L445 600L401 557.1Z" fill="#1a1a1a" stroke="#1a1a1a"></path><path d="M760 382.7L723 382.7L759 432.6Z" fill="#0d0d0d" stroke="#0d0d0d"></path><path d="M760 382.7L759 345.9L723 382.7Z" fill="#1d1d1d" stroke="#1d1d1d"></path><path d="M580 37.9L543 79.7L588 88.7Z" fill="#161616" stroke="#161616"></path><path d="M493 46.9L490 0L444 41.9Z" fill="#000000" stroke="#000000"></path><path d="M679 517.3L719 470.4L671 470.4Z" fill="#0d0d0d" stroke="#0d0d0d"></path><path d="M265 517.3L319 510.3L272 474.4Z" fill="#181818" stroke="#181818"></path><path d="M359 600L407 600L401 557.1Z" fill="#1f1f1f" stroke="#1f1f1f"></path><path d="M490 600L544 600L537 560.1Z" fill="#040404" stroke="#040404"></path><path d="M767 212.3L760 259.1L804 257.1Z" fill="#101010" stroke="#101010"></path><path d="M759 298L760 259.1L725 295Z" fill="#1d1d1d" stroke="#1d1d1d"></path><path d="M720 208.3L725 166.4L669 168.4Z" fill="#0d0d0d" stroke="#0d0d0d"></path><path d="M320 47.9L309 83.7L358 83.7Z" fill="#1f1f1f" stroke="#1f1f1f"></path><path d="M359 600L401 557.1L355 554.1Z" fill="#1d1d1d" stroke="#1d1d1d"></path><path d="M759 432.6L723 382.7L714 422.6Z" fill="#1d1d1d" stroke="#1d1d1d"></path><path d="M804 257.1L760 259.1L759 298Z" fill="#1a1a1a" stroke="#1a1a1a"></path><path d="M228 519.3L265 517.3L272 474.4Z" fill="#1a1a1a" stroke="#1a1a1a"></path><path d="M225 125.6L266 170.4L268 129.6Z" fill="#181818" stroke="#181818"></path><path d="M225 125.6L225 174.4L266 170.4Z" fill="#131313" stroke="#131313"></path><path d="M762 175.4L725 166.4L720 208.3Z" fill="#000000" stroke="#000000"></path><path d="M670 130.6L674 89.7L634 128.6Z" fill="#040404" stroke="#040404"></path><path d="M176 301L223 305L222 258.1Z" fill="#0d0d0d" stroke="#0d0d0d"></path><path d="M219 336.9L185 343.9L228 380.7Z" fill="#0d0d0d" stroke="#0d0d0d"></path><path d="M176 301L222 258.1L180 256.1Z" fill="#161616" stroke="#161616"></path><path d="M180 426.6L223 465.4L221 425.6Z" fill="#1f1f1f" stroke="#1f1f1f"></path><path d="M221 425.6L223 465.4L269 426.6Z" fill="#040404" stroke="#040404"></path><path d="M402 0L365 42.9L408 45.9Z" fill="#000000" stroke="#000000"></path><path d="M408 45.9L365 42.9L407 88.7Z" fill="#090909" stroke="#090909"></path><path d="M626 47.9L580 37.9L588 88.7Z" fill="#000000" stroke="#000000"></path><path d="M542 42.9L490 0L493 46.9Z" fill="#000000" stroke="#000000"></path><path d="M444 41.9L402 0L408 45.9Z" fill="#090909" stroke="#090909"></path><path d="M626 47.9L588 88.7L629 89.7Z" fill="#161616" stroke="#161616"></path><path d="M544 600L583 600L582 556.1Z" fill="#181818" stroke="#181818"></path><path d="M624 556.1L678 557.1L679 517.3Z" fill="#181818" stroke="#181818"></path><path d="M180 256.1L222 258.1L223 212.3Z" fill="#101010" stroke="#101010"></path><path d="M716 122.6L674 89.7L670 130.6Z" fill="#1a1a1a" stroke="#1a1a1a"></path><path d="M176 212.3L180 256.1L223 212.3Z" fill="#1a1a1a" stroke="#1a1a1a"></path><path d="M765 466.4L759 432.6L719 470.4Z" fill="#1d1d1d" stroke="#1d1d1d"></path><path d="M719 470.4L759 432.6L714 422.6Z" fill="#101010" stroke="#101010"></path><path d="M313 600L359 600L355 554.1Z" fill="#040404" stroke="#040404"></path><path d="M313 600L355 554.1L310 551.1Z" fill="#040404" stroke="#040404"></path><path d="M132 384.7L177 389.7L185 343.9Z" fill="#000000" stroke="#000000"></path><path d="M185 343.9L177 389.7L228 380.7Z" fill="#131313" stroke="#131313"></path><path d="M760 259.1L767 212.3L720 208.3Z" fill="#1a1a1a" stroke="#1a1a1a"></path><path d="M725 166.4L716 122.6L670 130.6Z" fill="#090909" stroke="#090909"></path><path d="M804 257.1L759 298L812 304Z" fill="#131313" stroke="#131313"></path><path d="M759 298L759 345.9L810 336.9Z" fill="#1a1a1a" stroke="#1a1a1a"></path><path d="M764 127.6L716 122.6L725 166.4Z" fill="#1a1a1a" stroke="#1a1a1a"></path><path d="M580 37.9L626 47.9L628 0Z" fill="#1a1a1a" stroke="#1a1a1a"></path><path d="M674 89.7L626 47.9L629 89.7Z" fill="#131313" stroke="#131313"></path><path d="M627 600L678 557.1L624 556.1Z" fill="#090909" stroke="#090909"></path><path d="M679 517.3L723 512.3L719 470.4Z" fill="#090909" stroke="#090909"></path><path d="M716 560.1L723 512.3L679 517.3Z" fill="#000000" stroke="#000000"></path><path d="M228 519.3L271 554.1L265 517.3Z" fill="#040404" stroke="#040404"></path><path d="M265 517.3L271 554.1L310 551.1Z" fill="#1f1f1f" stroke="#1f1f1f"></path><path d="M228 519.3L272 474.4L223 465.4Z" fill="#090909" stroke="#090909"></path><path d="M365 42.9L320 47.9L358 83.7Z" fill="#161616" stroke="#161616"></path><path d="M264 80.7L225 125.6L268 129.6Z" fill="#1a1a1a" stroke="#1a1a1a"></path><path d="M177 389.7L180 426.6L221 425.6Z" fill="#161616" stroke="#161616"></path><path d="M264 80.7L268 129.6L309 83.7Z" fill="#0d0d0d" stroke="#0d0d0d"></path><path d="M225 174.4L176 212.3L223 212.3Z" fill="#181818" stroke="#181818"></path><path d="M583 600L627 600L624 556.1Z" fill="#090909" stroke="#090909"></path><path d="M767 212.3L762 175.4L720 208.3Z" fill="#1f1f1f" stroke="#1f1f1f"></path><path d="M545 0L542 42.9L580 37.9Z" fill="#1d1d1d" stroke="#1d1d1d"></path><path d="M545 0L490 0L542 42.9Z" fill="#040404" stroke="#040404"></path><path d="M365 42.9L359 0L320 47.9Z" fill="#1a1a1a" stroke="#1a1a1a"></path><path d="M178 165.4L176 212.3L225 174.4Z" fill="#0d0d0d" stroke="#0d0d0d"></path><path d="M136 261.1L137 301L176 301Z" fill="#090909" stroke="#090909"></path><path d="M270 37.9L264 80.7L309 83.7Z" fill="#090909" stroke="#090909"></path><path d="M184 472.4L228 519.3L223 465.4Z" fill="#040404" stroke="#040404"></path><path d="M490 0L450 0L444 41.9Z" fill="#1f1f1f" stroke="#1f1f1f"></path><path d="M767 508.3L765 466.4L719 470.4Z" fill="#1a1a1a" stroke="#1a1a1a"></path><path d="M815 390.7L810 336.9L760 382.7Z" fill="#1f1f1f" stroke="#1f1f1f"></path><path d="M269 600L313 600L271 554.1Z" fill="#181818" stroke="#181818"></path><path d="M271 554.1L313 600L310 551.1Z" fill="#0d0d0d" stroke="#0d0d0d"></path><path d="M586 0L545 0L580 37.9Z" fill="#161616" stroke="#161616"></path><path d="M450 0L402 0L444 41.9Z" fill="#101010" stroke="#101010"></path><path d="M180 426.6L184 472.4L223 465.4Z" fill="#181818" stroke="#181818"></path><path d="M810 336.9L759 345.9L760 382.7Z" fill="#090909" stroke="#090909"></path><path d="M767 212.3L805 209.3L762 175.4Z" fill="#161616" stroke="#161616"></path><path d="M815 390.7L760 382.7L811 424.6Z" fill="#1f1f1f" stroke="#1f1f1f"></path><path d="M810 336.9L812 304L759 298Z" fill="#101010" stroke="#101010"></path><path d="M175 127.6L178 165.4L225 125.6Z" fill="#090909" stroke="#090909"></path><path d="M225 125.6L178 165.4L225 174.4Z" fill="#000000" stroke="#000000"></path><path d="M628 0L586 0L580 37.9Z" fill="#0d0d0d" stroke="#0d0d0d"></path><path d="M671 37.9L626 47.9L674 89.7Z" fill="#1a1a1a" stroke="#1a1a1a"></path><path d="M680 600L716 560.1L678 557.1Z" fill="#131313" stroke="#131313"></path><path d="M678 557.1L716 560.1L679 517.3Z" fill="#040404" stroke="#040404"></path><path d="M723 512.3L767 508.3L719 470.4Z" fill="#1f1f1f" stroke="#1f1f1f"></path><path d="M402 0L359 0L365 42.9Z" fill="#1a1a1a" stroke="#1a1a1a"></path><path d="M221 38.9L228 82.7L264 80.7Z" fill="#090909" stroke="#090909"></path><path d="M136 261.1L176 301L180 256.1Z" fill="#1f1f1f" stroke="#1f1f1f"></path><path d="M176 301L129 339.9L185 343.9Z" fill="#1d1d1d" stroke="#1d1d1d"></path><path d="M177 389.7L133 426.6L180 426.6Z" fill="#181818" stroke="#181818"></path><path d="M180 426.6L133 426.6L184 472.4Z" fill="#090909" stroke="#090909"></path><path d="M136 261.1L180 256.1L176 212.3Z" fill="#090909" stroke="#090909"></path><path d="M764 127.6L725 84.7L716 122.6Z" fill="#000000" stroke="#000000"></path><path d="M716 122.6L725 84.7L674 89.7Z" fill="#1f1f1f" stroke="#1f1f1f"></path><path d="M764 127.6L725 166.4L762 175.4Z" fill="#101010" stroke="#101010"></path><path d="M720 43.9L671 37.9L674 89.7Z" fill="#000000" stroke="#000000"></path><path d="M270 37.9L309 83.7L320 47.9Z" fill="#090909" stroke="#090909"></path><path d="M264 80.7L228 82.7L225 125.6Z" fill="#1a1a1a" stroke="#1a1a1a"></path><path d="M809 168.4L764 127.6L762 175.4Z" fill="#000000" stroke="#000000"></path><path d="M811 424.6L760 382.7L759 432.6Z" fill="#000000" stroke="#000000"></path><path d="M810 336.9L849 299L812 304Z" fill="#000000" stroke="#000000"></path><path d="M811 424.6L759 432.6L765 466.4Z" fill="#0d0d0d" stroke="#0d0d0d"></path><path d="M804 257.1L805 209.3L767 212.3Z" fill="#131313" stroke="#131313"></path><path d="M854 217.3L805 209.3L804 257.1Z" fill="#101010" stroke="#101010"></path><path d="M134 209.3L136 261.1L176 212.3Z" fill="#000000" stroke="#000000"></path><path d="M761 551.1L767 508.3L723 512.3Z" fill="#181818" stroke="#181818"></path><path d="M627 600L680 600L678 557.1Z" fill="#131313" stroke="#131313"></path><path d="M716 560.1L761 551.1L723 512.3Z" fill="#161616" stroke="#161616"></path><path d="M92 347.9L129 339.9L85 294Z" fill="#1d1d1d" stroke="#1d1d1d"></path><path d="M137 301L129 339.9L176 301Z" fill="#040404" stroke="#040404"></path><path d="M314 0L270 37.9L320 47.9Z" fill="#090909" stroke="#090909"></path><path d="M219 561.1L271 554.1L228 519.3Z" fill="#090909" stroke="#090909"></path><path d="M227 600L269 600L271 554.1Z" fill="#1d1d1d" stroke="#1d1d1d"></path><path d="M812 469.4L811 424.6L765 466.4Z" fill="#040404" stroke="#040404"></path><path d="M129 339.9L132 384.7L185 343.9Z" fill="#090909" stroke="#090909"></path><path d="M671 37.9L628 0L626 47.9Z" fill="#1f1f1f" stroke="#1f1f1f"></path><path d="M672 0L628 0L671 37.9Z" fill="#181818" stroke="#181818"></path><path d="M184 560.1L219 561.1L228 519.3Z" fill="#1d1d1d" stroke="#1d1d1d"></path><path d="M177 511.3L228 519.3L184 472.4Z" fill="#1f1f1f" stroke="#1f1f1f"></path><path d="M129 476.4L177 511.3L184 472.4Z" fill="#090909" stroke="#090909"></path><path d="M179 83.7L175 127.6L225 125.6Z" fill="#1f1f1f" stroke="#1f1f1f"></path><path d="M178 165.4L134 209.3L176 212.3Z" fill="#101010" stroke="#101010"></path><path d="M179 83.7L225 125.6L228 82.7Z" fill="#101010" stroke="#101010"></path><path d="M359 0L314 0L320 47.9Z" fill="#000000" stroke="#000000"></path><path d="M132 168.4L134 209.3L178 165.4Z" fill="#1a1a1a" stroke="#1a1a1a"></path><path d="M85 294L129 339.9L137 301Z" fill="#131313" stroke="#131313"></path><path d="M132 384.7L133 426.6L177 389.7Z" fill="#181818" stroke="#181818"></path><path d="M129 476.4L133 426.6L92 430.6Z" fill="#1a1a1a" stroke="#1a1a1a"></path><path d="M854 217.3L809 168.4L805 209.3Z" fill="#0d0d0d" stroke="#0d0d0d"></path><path d="M805 209.3L809 168.4L762 175.4Z" fill="#1f1f1f" stroke="#1f1f1f"></path><path d="M765 45.9L720 43.9L725 84.7Z" fill="#1a1a1a" stroke="#1a1a1a"></path><path d="M849 299L804 257.1L812 304Z" fill="#1d1d1d" stroke="#1d1d1d"></path><path d="M763 600L761 551.1L716 560.1Z" fill="#1d1d1d" stroke="#1d1d1d"></path><path d="M767 508.3L812 469.4L765 466.4Z" fill="#0d0d0d" stroke="#0d0d0d"></path><path d="M767 87.7L725 84.7L764 127.6Z" fill="#090909" stroke="#090909"></path><path d="M725 84.7L720 43.9L674 89.7Z" fill="#101010" stroke="#101010"></path><path d="M815 514.3L812 469.4L767 508.3Z" fill="#101010" stroke="#101010"></path><path d="M858 341.9L810 336.9L815 390.7Z" fill="#161616" stroke="#161616"></path><path d="M807 128.6L767 87.7L764 127.6Z" fill="#161616" stroke="#161616"></path><path d="M858 341.9L815 390.7L856 386.7Z" fill="#1a1a1a" stroke="#1a1a1a"></path><path d="M858 341.9L849 299L810 336.9Z" fill="#1d1d1d" stroke="#1d1d1d"></path><path d="M680 600L722 600L716 560.1Z" fill="#1f1f1f" stroke="#1f1f1f"></path><path d="M722 0L672 0L671 37.9Z" fill="#1a1a1a" stroke="#1a1a1a"></path><path d="M177 600L227 600L219 561.1Z" fill="#0d0d0d" stroke="#0d0d0d"></path><path d="M219 561.1L227 600L271 554.1Z" fill="#0d0d0d" stroke="#0d0d0d"></path><path d="M136 129.6L132 168.4L178 165.4Z" fill="#161616" stroke="#161616"></path><path d="M93 262.1L137 301L136 261.1Z" fill="#181818" stroke="#181818"></path><path d="M229 0L221 38.9L270 37.9Z" fill="#161616" stroke="#161616"></path><path d="M270 37.9L221 38.9L264 80.7Z" fill="#1f1f1f" stroke="#1f1f1f"></path><path d="M175 127.6L136 129.6L178 165.4Z" fill="#090909" stroke="#090909"></path><path d="M177 511.3L184 560.1L228 519.3Z" fill="#101010" stroke="#101010"></path><path d="M132 556.1L184 560.1L177 511.3Z" fill="#040404" stroke="#040404"></path><path d="M181 44.9L179 83.7L228 82.7Z" fill="#040404" stroke="#040404"></path><path d="M856 128.6L807 128.6L809 168.4Z" fill="#161616" stroke="#161616"></path><path d="M809 168.4L807 128.6L764 127.6Z" fill="#1d1d1d" stroke="#1d1d1d"></path><path d="M856 386.7L815 390.7L853 431.6Z" fill="#131313" stroke="#131313"></path><path d="M314 0L267 0L270 37.9Z" fill="#161616" stroke="#161616"></path><path d="M89 389.7L133 426.6L132 384.7Z" fill="#181818" stroke="#181818"></path><path d="M133 426.6L129 476.4L184 472.4Z" fill="#101010" stroke="#101010"></path><path d="M853 431.6L815 390.7L811 424.6Z" fill="#1d1d1d" stroke="#1d1d1d"></path><path d="M900 294L857 252.1L849 299Z" fill="#1d1d1d" stroke="#1d1d1d"></path><path d="M849 299L857 252.1L804 257.1Z" fill="#000000" stroke="#000000"></path><path d="M93 262.1L136 261.1L91 212.3Z" fill="#1a1a1a" stroke="#1a1a1a"></path><path d="M129 339.9L92 347.9L132 384.7Z" fill="#0d0d0d" stroke="#0d0d0d"></path><path d="M91 212.3L136 261.1L134 209.3Z" fill="#040404" stroke="#040404"></path><path d="M857 252.1L854 217.3L804 257.1Z" fill="#1f1f1f" stroke="#1f1f1f"></path><path d="M761 551.1L815 514.3L767 508.3Z" fill="#1a1a1a" stroke="#1a1a1a"></path><path d="M812 469.4L853 431.6L811 424.6Z" fill="#161616" stroke="#161616"></path><path d="M810 558.1L815 514.3L761 551.1Z" fill="#1f1f1f" stroke="#1f1f1f"></path><path d="M132 81.7L136 129.6L175 127.6Z" fill="#131313" stroke="#131313"></path><path d="M85 175.4L91 212.3L134 209.3Z" fill="#161616" stroke="#161616"></path><path d="M132 81.7L175 127.6L179 83.7Z" fill="#1f1f1f" stroke="#1f1f1f"></path><path d="M850 475.4L853 431.6L812 469.4Z" fill="#1a1a1a" stroke="#1a1a1a"></path><path d="M93 262.1L85 294L137 301Z" fill="#090909" stroke="#090909"></path><path d="M46 387.7L89 389.7L92 347.9Z" fill="#090909" stroke="#090909"></path><path d="M92 347.9L89 389.7L132 384.7Z" fill="#161616" stroke="#161616"></path><path d="M90 515.3L131 511.3L129 476.4Z" fill="#040404" stroke="#040404"></path><path d="M129 476.4L131 511.3L177 511.3Z" fill="#101010" stroke="#101010"></path><path d="M184 560.1L177 600L219 561.1Z" fill="#161616" stroke="#161616"></path><path d="M767 87.7L765 45.9L725 84.7Z" fill="#161616" stroke="#161616"></path><path d="M720 43.9L722 0L671 37.9Z" fill="#1a1a1a" stroke="#1a1a1a"></path><path d="M807 46.9L765 45.9L767 87.7Z" fill="#181818" stroke="#181818"></path><path d="M812 84.7L767 87.7L807 128.6Z" fill="#000000" stroke="#000000"></path><path d="M46 260.1L50 300L85 294Z" fill="#131313" stroke="#131313"></path><path d="M85 175.4L134 209.3L132 168.4Z" fill="#181818" stroke="#181818"></path><path d="M722 600L763 600L716 560.1Z" fill="#131313" stroke="#131313"></path><path d="M89 389.7L92 430.6L133 426.6Z" fill="#1f1f1f" stroke="#1f1f1f"></path><path d="M765 45.9L722 0L720 43.9Z" fill="#090909" stroke="#090909"></path><path d="M179 0L181 44.9L221 38.9Z" fill="#0d0d0d" stroke="#0d0d0d"></path><path d="M221 38.9L181 44.9L228 82.7Z" fill="#040404" stroke="#040404"></path><path d="M85 129.6L85 175.4L132 168.4Z" fill="#000000" stroke="#000000"></path><path d="M267 0L229 0L270 37.9Z" fill="#131313" stroke="#131313"></path><path d="M855 510.3L850 475.4L815 514.3Z" fill="#000000" stroke="#000000"></path><path d="M815 514.3L850 475.4L812 469.4Z" fill="#040404" stroke="#040404"></path><path d="M850 85.7L812 84.7L807 128.6Z" fill="#040404" stroke="#040404"></path><path d="M765 45.9L768 0L722 0Z" fill="#000000" stroke="#000000"></path><path d="M854 217.3L857 165.4L809 168.4Z" fill="#181818" stroke="#181818"></path><path d="M900 214.3L857 165.4L854 217.3Z" fill="#1f1f1f" stroke="#1f1f1f"></path><path d="M900 214.3L854 217.3L857 252.1Z" fill="#1d1d1d" stroke="#1d1d1d"></path><path d="M763 600L810 558.1L761 551.1Z" fill="#161616" stroke="#161616"></path><path d="M132 556.1L177 600L184 560.1Z" fill="#131313" stroke="#131313"></path><path d="M85 129.6L132 168.4L136 129.6Z" fill="#0d0d0d" stroke="#0d0d0d"></path><path d="M46 260.1L85 294L93 262.1Z" fill="#040404" stroke="#040404"></path><path d="M92 430.6L87 469.4L129 476.4Z" fill="#181818" stroke="#181818"></path><path d="M131 511.3L132 556.1L177 511.3Z" fill="#181818" stroke="#181818"></path><path d="M50 426.6L87 469.4L92 430.6Z" fill="#131313" stroke="#131313"></path><path d="M50 426.6L92 430.6L89 389.7Z" fill="#131313" stroke="#131313"></path><path d="M135 46.9L132 81.7L179 83.7Z" fill="#131313" stroke="#131313"></path><path d="M135 46.9L179 83.7L181 44.9Z" fill="#1d1d1d" stroke="#1d1d1d"></path><path d="M90 515.3L132 556.1L131 511.3Z" fill="#181818" stroke="#181818"></path><path d="M856 386.7L900 342.9L858 341.9Z" fill="#131313" stroke="#131313"></path><path d="M858 341.9L900 294L849 299Z" fill="#1d1d1d" stroke="#1d1d1d"></path><path d="M900 389.7L900 342.9L856 386.7Z" fill="#101010" stroke="#101010"></path><path d="M900 389.7L856 386.7L900 427.6Z" fill="#0d0d0d" stroke="#0d0d0d"></path><path d="M900 342.9L900 294L858 341.9Z" fill="#181818" stroke="#181818"></path><path d="M852 557.1L855 510.3L815 514.3Z" fill="#1d1d1d" stroke="#1d1d1d"></path><path d="M900 427.6L856 386.7L853 431.6Z" fill="#101010" stroke="#101010"></path><path d="M900 133.6L856 128.6L857 165.4Z" fill="#101010" stroke="#101010"></path><path d="M857 165.4L856 128.6L809 168.4Z" fill="#181818" stroke="#181818"></path><path d="M850 85.7L807 46.9L812 84.7Z" fill="#000000" stroke="#000000"></path><path d="M812 84.7L807 46.9L767 87.7Z" fill="#161616" stroke="#161616"></path><path d="M46 260.1L93 262.1L91 212.3Z" fill="#090909" stroke="#090909"></path><path d="M85 294L50 300L92 347.9Z" fill="#181818" stroke="#181818"></path><path d="M900 294L900 253.1L857 252.1Z" fill="#0d0d0d" stroke="#0d0d0d"></path><path d="M900 427.6L853 431.6L900 474.4Z" fill="#131313" stroke="#131313"></path><path d="M807 46.9L768 0L765 45.9Z" fill="#0d0d0d" stroke="#0d0d0d"></path><path d="M49 512.3L90 515.3L87 469.4Z" fill="#040404" stroke="#040404"></path><path d="M87 469.4L90 515.3L129 476.4Z" fill="#101010" stroke="#101010"></path><path d="M132 556.1L133 600L177 600Z" fill="#0d0d0d" stroke="#0d0d0d"></path><path d="M45 216.3L46 260.1L91 212.3Z" fill="#1f1f1f" stroke="#1f1f1f"></path><path d="M900 253.1L900 214.3L857 252.1Z" fill="#1d1d1d" stroke="#1d1d1d"></path><path d="M87 85.7L85 129.6L136 129.6Z" fill="#000000" stroke="#000000"></path><path d="M85 175.4L45 216.3L91 212.3Z" fill="#0d0d0d" stroke="#0d0d0d"></path><path d="M900 474.4L853 431.6L850 475.4Z" fill="#181818" stroke="#181818"></path><path d="M229 0L179 0L221 38.9Z" fill="#1a1a1a" stroke="#1a1a1a"></path><path d="M132 81.7L87 85.7L136 129.6Z" fill="#131313" stroke="#131313"></path><path d="M40 346.9L92 347.9L50 300Z" fill="#101010" stroke="#101010"></path><path d="M40 346.9L46 387.7L92 347.9Z" fill="#1a1a1a" stroke="#1a1a1a"></path><path d="M179 0L135 46.9L181 44.9Z" fill="#090909" stroke="#090909"></path><path d="M0 339.9L40 346.9L50 300Z" fill="#181818" stroke="#181818"></path><path d="M763 600L814 600L810 558.1Z" fill="#1a1a1a" stroke="#1a1a1a"></path><path d="M810 558.1L852 557.1L815 514.3Z" fill="#040404" stroke="#040404"></path><path d="M855 510.3L900 474.4L850 475.4Z" fill="#131313" stroke="#131313"></path><path d="M900 80.7L850 85.7L856 128.6Z" fill="#1d1d1d" stroke="#1d1d1d"></path><path d="M856 128.6L850 85.7L807 128.6Z" fill="#161616" stroke="#161616"></path><path d="M807 46.9L814 0L768 0Z" fill="#101010" stroke="#101010"></path><path d="M50 471.4L50 426.6L0 465.4Z" fill="#131313" stroke="#131313"></path><path d="M46 387.7L50 426.6L89 389.7Z" fill="#131313" stroke="#131313"></path><path d="M814 600L852 557.1L810 558.1Z" fill="#131313" stroke="#131313"></path><path d="M47 173.4L45 216.3L85 175.4Z" fill="#040404" stroke="#040404"></path><path d="M0 296L0 339.9L50 300Z" fill="#101010" stroke="#101010"></path><path d="M93 557.1L133 600L132 556.1Z" fill="#000000" stroke="#000000"></path><path d="M900 214.3L900 165.4L857 165.4Z" fill="#131313" stroke="#131313"></path><path d="M900 518.3L900 474.4L855 510.3Z" fill="#181818" stroke="#181818"></path><path d="M47 558.1L93 557.1L90 515.3Z" fill="#181818" stroke="#181818"></path><path d="M90 515.3L93 557.1L132 556.1Z" fill="#0d0d0d" stroke="#0d0d0d"></path><path d="M50 426.6L50 471.4L87 469.4Z" fill="#161616" stroke="#161616"></path><path d="M0 428.6L50 426.6L46 387.7Z" fill="#0d0d0d" stroke="#0d0d0d"></path><path d="M42 132.6L47 173.4L85 129.6Z" fill="#0d0d0d" stroke="#0d0d0d"></path><path d="M85 129.6L47 173.4L85 175.4Z" fill="#101010" stroke="#101010"></path><path d="M93 43.9L132 81.7L135 46.9Z" fill="#181818" stroke="#181818"></path><path d="M93 43.9L87 85.7L132 81.7Z" fill="#1a1a1a" stroke="#1a1a1a"></path><path d="M900 165.4L900 133.6L857 165.4Z" fill="#1f1f1f" stroke="#1f1f1f"></path><path d="M849 38.9L814 0L807 46.9Z" fill="#131313" stroke="#131313"></path><path d="M849 38.9L807 46.9L850 85.7Z" fill="#181818" stroke="#181818"></path><path d="M900 45.9L849 38.9L850 85.7Z" fill="#181818" stroke="#181818"></path><path d="M900 562.1L900 518.3L852 557.1Z" fill="#000000" stroke="#000000"></path><path d="M852 557.1L900 518.3L855 510.3Z" fill="#181818" stroke="#181818"></path><path d="M0 513.3L49 512.3L50 471.4Z" fill="#040404" stroke="#040404"></path><path d="M50 471.4L49 512.3L87 469.4Z" fill="#1f1f1f" stroke="#1f1f1f"></path><path d="M93 557.1L90 600L133 600Z" fill="#1a1a1a" stroke="#1a1a1a"></path><path d="M179 0L131 0L135 46.9Z" fill="#040404" stroke="#040404"></path><path d="M814 600L855 600L852 557.1Z" fill="#101010" stroke="#101010"></path><path d="M131 0L93 43.9L135 46.9Z" fill="#1d1d1d" stroke="#1d1d1d"></path><path d="M47 86.7L42 132.6L85 129.6Z" fill="#101010" stroke="#101010"></path><path d="M47 86.7L85 129.6L87 85.7Z" fill="#181818" stroke="#181818"></path><path d="M0 253.1L46 260.1L45 216.3Z" fill="#000000" stroke="#000000"></path><path d="M0 296L50 300L46 260.1Z" fill="#000000" stroke="#000000"></path><path d="M0 296L46 260.1L0 253.1Z" fill="#090909" stroke="#090909"></path><path d="M40 346.9L0 388.7L46 387.7Z" fill="#040404" stroke="#040404"></path><path d="M0 253.1L45 216.3L0 215.3Z" fill="#181818" stroke="#181818"></path><path d="M47 558.1L90 600L93 557.1Z" fill="#1a1a1a" stroke="#1a1a1a"></path><path d="M0 215.3L45 216.3L47 173.4Z" fill="#1d1d1d" stroke="#1d1d1d"></path><path d="M0 339.9L0 388.7L40 346.9Z" fill="#000000" stroke="#000000"></path><path d="M900 133.6L900 80.7L856 128.6Z" fill="#000000" stroke="#000000"></path><path d="M849 38.9L856 0L814 0Z" fill="#000000" stroke="#000000"></path><path d="M855 600L900 562.1L852 557.1Z" fill="#040404" stroke="#040404"></path><path d="M0 171.4L0 215.3L47 173.4Z" fill="#1a1a1a" stroke="#1a1a1a"></path><path d="M93 43.9L47 86.7L87 85.7Z" fill="#1a1a1a" stroke="#1a1a1a"></path><path d="M42 132.6L0 171.4L47 173.4Z" fill="#0d0d0d" stroke="#0d0d0d"></path><path d="M41 38.9L47 86.7L93 43.9Z" fill="#1f1f1f" stroke="#1f1f1f"></path><path d="M0 388.7L0 428.6L46 387.7Z" fill="#131313" stroke="#131313"></path><path d="M49 512.3L47 558.1L90 515.3Z" fill="#181818" stroke="#181818"></path><path d="M0 513.3L47 558.1L49 512.3Z" fill="#161616" stroke="#161616"></path><path d="M900 45.9L856 0L849 38.9Z" fill="#161616" stroke="#161616"></path><path d="M0 428.6L0 465.4L50 426.6Z" fill="#181818" stroke="#181818"></path><path d="M0 127.6L0 171.4L42 132.6Z" fill="#000000" stroke="#000000"></path><path d="M900 80.7L900 45.9L850 85.7Z" fill="#181818" stroke="#181818"></path><path d="M131 0L86 0L93 43.9Z" fill="#0d0d0d" stroke="#0d0d0d"></path><path d="M47 86.7L0 127.6L42 132.6Z" fill="#1d1d1d" stroke="#1d1d1d"></path><path d="M855 600L900 600L900 562.1Z" fill="#101010" stroke="#101010"></path><path d="M0 600L47 600L47 558.1Z" fill="#1f1f1f" stroke="#1f1f1f"></path><path d="M47 558.1L47 600L90 600Z" fill="#000000" stroke="#000000"></path><path d="M0 80.7L0 127.6L47 86.7Z" fill="#161616" stroke="#161616"></path><path d="M0 465.4L0 513.3L50 471.4Z" fill="#000000" stroke="#000000"></path><path d="M86 0L41 38.9L93 43.9Z" fill="#1d1d1d" stroke="#1d1d1d"></path><path d="M900 45.9L900 0L856 0Z" fill="#1d1d1d" stroke="#1d1d1d"></path><path d="M41 38.9L0 80.7L47 86.7Z" fill="#131313" stroke="#131313"></path><path d="M0 513.3L0 557.1L47 558.1Z" fill="#090909" stroke="#090909"></path><path d="M86 0L47 0L41 38.9Z" fill="#101010" stroke="#101010"></path><path d="M41 38.9L0 36.9L0 80.7Z" fill="#131313" stroke="#131313"></path><path d="M0 557.1L0 600L47 558.1Z" fill="#0d0d0d" stroke="#0d0d0d"></path><path d="M0 0L0 36.9L41 38.9Z" fill="#090909" stroke="#090909"></path><path d="M47 0L0 0L41 38.9Z" fill="#161616" stroke="#161616"></path></g></svg>